<svg id="Layer_1" data-name="Layer 1" xmlns="http://www.w3.org/2000/svg" viewBox="0 0 600 433"><defs><style>.cls-1{fill:#fff;}</style></defs><path class="cls-1" d="M454.23.87A144.79,144.79,0,1,0,599,145.66,144.78,144.78,0,0,0,454.23.87Zm0,250.19a105.41,105.41,0,1,1,105.4-105.4A105.52,105.52,0,0,1,454.23,251.06Z"/><polygon class="cls-1" points="0.99 432.13 108.75 432.13 108.75 311.69 249.19 311.69 249.19 234.64 108.75 234.64 108.75 177.1 272.11 177.1 272.11 96.65 0.99 96.65 0.99 432.13"/><polygon class="cls-1" points="499.05 96.67 486.98 160.23 486.33 160.23 472.81 96.67 437.27 96.67 424.56 160.23 423.91 160.23 411.03 96.67 373.55 96.67 399.79 208.8 439.39 208.8 453.9 140.51 454.55 140.51 469.06 208.8 508.66 208.8 534.9 96.67 499.05 96.67"/></svg>